<?xml version="1.0" encoding="utf-8"?>

<!DOCTYPE svg PUBLIC "-//W3C//DTD SVG 1.1//EN" "http://www.w3.org/Graphics/SVG/1.1/DTD/svg11.dtd">  
    <svg version="1.1" id="Layer_1" xmlns="http://www.w3.org/2000/svg" xmlns:xlink="http://www.w3.org/1999/xlink" height="40" width="40" x="0px" y="0px" viewBox="0 0 1172 1920"
        enable-background="new 0 0 1172 1920" xml:space="preserve">
        <g>
            <path fill="#FFFEA9" d="M1056.99,589.76c0.8221-6.6769-1.1727-13.547,0.91-20.1c1.3718,12.3618,2.0449,27.3935,0.02,39.7
C1055.8954,602.9808,1057.6222,596.272,1056.99,589.76C1057.8101,583.1,1057.62,596.25,1056.99,589.76z" />
            <linearGradient id="SVGID_1_" gradientUnits="userSpaceOnUse" x1="586.7383" y1="1263.6279"
                x2="586.7383" y2="116.9401">
                <stop offset="0" style="stop-color:#F9B90F" />
                <stop offset="1" style="stop-color:#FEFAEE" />
            </linearGradient>
            <path fill="url(#SVGID_1_)"
                d="M478.9199,826.79c-2.6199-23.41,15.29-31.06,35.0601-27.69c0.3-9.36,2.16-19.37,8.45-26.64
c0.01-0.02,0.03-0.04,0.05-0.06c0.65-0.67,1.46-1.5,2.01-2.06c6.41-5.84,17.63-11.32,26.1699-8.95
c9.29,2.58,9.8701,15.66,11.9901,23.29c5.5699,19.99-13.7001,40.77-29.9,50.05C519.4,842.38,481.47,849.48,478.9199,826.79z
M573.6899,1045.9c14.6101,0.58,29.8201,1.47,43.9601-3.08c9.2799-2.6401,23.13-9.4102,23.2699-20.29
c0.1501-12.44,7.5701-18.64-3.4199-27.03c-19.39-14.8-50.97-19.41-73.8-10.72c-9.74,3.7599-18.6799,9.9-25.33,17.99
c6.25,7.56,9.76,20.97,4.11,30.09C537.6599,1040.65,567.62,1045.65,573.6899,1045.9z M658.38,1163.75
c0.01-12.9299-0.03-25.87,0.0299-38.75c-0.0599-15.99-0.0199-31.99-0.0099-47.98c0-7.99-0.01-15.99-0.04-23.98
c-0.01-1.4301-4.5399-17.14-9.63-12.48c-0.03,0.03-0.05,0.0499-0.08,0.08c-0.17,0.15-0.34,0.2899-0.5,0.42
c-2.02,1.76-2.9,2.51-3.12,2.6799c0.1599-0.1599,0.77-0.7,1.46-1.3101c-21.11,16.8601-52.49,22.75-78.64,16.9501
c-12.5599-2.78-24.0399-10.2001-36.37-12.74c-6.99-1.4401-4.04,12.41-4.04,17.0599c-0.01,7.55,0.0701,15.0901,0.0701,22.6401
c-0.04,29.23-0.05,58.4199-0.03,87.6599c0.65,29.11-3.38,59.96,0.3401,88.85c31.5898,0.0599,63.1699,0.04,94.76,0.03
c7.8899,0,15.7899,0,23.6899,0c11.62,0,12.04,1.0599,12.1399-10.7999c0.1401-14.4401,1.79-30.4701-0.3899-44.7301
C660.9,1193.88,658.38,1177.5,658.38,1163.75z M1050.97,676.76c-15.7,86.71-55.52,168.48-114.35,234.17
c-28.98,32.36-63.42,60.53-100.4,83.22c-19.79,12.13-40.23,23.24-61.53,32.48c-5.1299,2.22-10.2899,4.39-15.4199,6.61
c-0.8,5.4-0.22,11.16-0.21,16.6001c0.02,10.24,2.4099,23.99-0.3301,33.8799c2.3501,48.48,0.5701,97.67,0.2,146.2
c0.1301,7.3201,0.2001,14.6401,0.1501,21.9701c-0.0601,7.73,2.9199,10.98-6.0801,10.99c-11.8201,0.01-23.65,0.01-35.47,0.01
c-5.91-0.01-11.8201-0.01-17.74-0.02c-8.3701-0.01-6.3-1.92-6.3101-9.2799c-0.02-11.1301-0.01-22.28,0.0701-33.4302
c0.35-45.0199,1.1-90.1799,0.02-135.1599c0.01-12.3401-0.02-24.6699,0.01-37.01c-0.26-2.6599,4.3899-5.29,5.5699-7.35
c2.41-4.1801,3.73-7.75,4.46-12.6801c2.7201-18.36-1.74-38.1199-23.1901-40.41c-6.0798-0.64-12.1899-0.11-18.2799-0.18
c-8.16-0.09-1.5599,6.96-10.77,0.87c-8.23-5.45-17.0399-10.82-26.4601-13.93c-20.95-6.9-39.1599-7.22-60.9299-3
c-6.98,5.92-19.84,7.28-27.87,12.98c-1.4401,1.03-7.47,7.88-9.5599,6.4c-3.67-2.6-7.04-3.43-11.5901-3.4
c-18.09,0.11-34.61,7.19-35.72,27.57c-0.5701,10.5499,1.53,21.11,9.4199,28.7101c6.26,6.0299,3.3901,17.1599,3.6602,25.6199
c0.6499,20.0901-0.28,40.17-0.04,60.26c0.52,42.5601,1,85.41,0.04,127.96c-0.2101,9.2001-9.9601,5.4701-17.5901,5.4701
c-5.77,0.01-11.54,0.01-17.3,0.01c-11.5399,0.01-23.0699,0-34.5999-0.03c-2.3301-20.5399,0.0199-42.0499-0.3801-62.72
c-0.8899-46.26,0.53-92.64,0.01-138.9c-0.08-7.4099,0.0801-14.8201,0.0901-22.23c0.01-8.0601-3.28-6.8-10.1001-9.66
c-10.0499-4.2-19.97-8.69-29.75-13.48c-19.54-9.6-38.5-20.42-56.52-32.64c-36.71-24.89-70.41-54.79-99-88.71
c-114.59-135.98-145.54-324.5-73.4-487.67c35.2599-79.75,91.49-150.49,162.68-201.5099
c34.83-24.9601,73.2199-45.4001,113.6301-60.55c18.8799-7.0701,39.47-19.6901,55.2699-2.2c6.86,8.0898,14.02,16.0599,22.51,22.5
c9.73,3.5898,19.41,7.2899,29.0499,11.1199c11.1501,4.7,21.8301,9.21,33.8701,11.1301c6.73,1.0698,24.9099-1.28,28.2,4.6399
c8.15,14.6799,18.78,29.76,30.79,42.2c13.1,13.5701,29.48,26.6901,45.3999,36.79c8.7201,5.52,18.04,10,27.4102,14.29
c8.5399,3.8999,23.71,6.6799,23.3298,16.87c-0.95,25.13-2.2,47.84,1.3,72.8199c2.75,19.6401,8.72,37.29,15.8401,55.7001
c15.76,40.7599,40.45,72.0299,72.3499,101.6901C812.5901,521.96,802.5801,510.27,796.98,500.25
c-7.04-12.5801-13.4199-25.5-19.4199-38.61c-10.77-23.52-17.0701-47.51-21.1201-73.1801c-2.4199-15.3799-1.95-30.86-0.01-46.27
c0.8601-6.8699,1.9102-14.08,4.4701-20.5699c2.75-6.99,12.65,1.53,17.1901,3.84c22.8499,11.6001,47.22,30.3301,63.3499,50.3701
c16.3701,20.3298,29.8101,43.8899,40.77,67.21c10.27,21.8799,21.42,45.1299,25.3601,68.6c9.3099,55.4,5.9299,107.4-8.4401,162.1801
c10.11-7.1401,17.75-30.3401,21.27-41.6801c5.46-17.5499,8.45-34.15,11.58-52.26c6.49-37.52,5.79-75.98-6.1799-112.28
c-12.22-37.09-29.05-70.0099-53.46-100.65c-23.8801-29.98-52.9001-49.46-84.1802-70.9199
c-33.3198-22.8601-68.5898-41.23-102.0299-63.88c-14.03-9.4901-27.61-19.7201-37.25-34.1801c-3.25-4.87-11.12-14.35-4.1901-18.22
c6.22-3.47,13.8301-2.8201,20.6101-1.95c37.1,8.08,74.09,21.3799,105.6799,42.5499c14.2,9.52,27.75,19.3199,41.0601,30.08
c6.85,5.54,13.74,11.0701,20.4299,16.8c5.1899,4.4299,11.3501,12.24,17.75,14.8501c-11.26-28.6602-31.29-58.3901-55.6699-77.5701
c-29.01-22.8301-63.5601-35.6899-98.71-45.52c-16.8501-4.72-35.1901-8.95-52.79-6.86c-19.1301,1.4601-38.42,2.9-57.5701,0.88
c-15.72-1.6699-32.63-4.4-47.1699-10.87c-8.6301-3.83-21.23-9.66-27.16-16.9401c123.21-26.03,257.91,11.24,357.0599,86.8
C1010.36,320.3401,1082.95,500.15,1050.97,676.76z M212.77,419.77c6.02-28.4299,19.69-52.47,39.47-73.5801
c10.34-11.03,23.03-21.8699,35.19-30.8799c10.36-7.67,23.65-11.3601,33.64-19.1101c-11.31-0.1599-22.54,1.3601-33.82,1.91
c-0.2,0.01-0.4,0.02-0.6,0.03c-0.08,0-0.15,0.01-0.23,0.01c-0.16,0.0099-0.33,0.0099-0.49,0.0199
c-2.68,0.1201-4.14,0.1901-4.7,0.2201c0.68-0.02,2.01-0.08,3.28-0.14c-29.11,1.95-50.53,21.89-63.22,47.25
c-5.88,11.76-10.06,23.9-11.57,37.02C208.96,389.15,205.99,415.45,212.77,419.77z M331.11,556.48
c19.29-0.2,30.35-10.53,38.25-27.21c17.87-37.75,21.03-75.97-14.2001-104.96C326.91,401.0701,278.13,394.37,247.16,416.15
c2.11-1.4901,3.14-2.2101,3.45-2.4301c-0.7,0.48-4.74,3.3101-6.61,4.63c0.56-0.39,1.41-0.98,2.62-1.8199
c-38.89,27.6599-44.35,84.11-36.94,127.54c3.71,21.6899,12.82,42.3999,24.24,61.1199c4.6,7.54,10.4,20.6501,20.06,21.23
c10.43-0.1899,20.86,0.2201,31.28-0.21c-7.15-8.61-15.37-14.7-21.17-24.79c-5.55-9.1899-10.06-18.99-13.6801-29.0898
c-7.72-21.52-12.8799-45.26-11.59-68.2101c1.22-21.5299,7.9-43.67,24.68-58.39c7.98-7,18.9-9.99,29.37-9.47
c8.61,0.4299,13.84,7.0601,21.96,8.2c-2.33,3.5901-14.54,5.28-18.66,8.42c-7.71,5.88-12.55,14.4601-15.17,23.6801
c-4.96,17.46-5.12,39.51,4.38,55.5C294.95,548.5601,312.45,556.6699,331.11,556.48z M479.02,622.79
c-12.46,9.35-19.4,22.01-35.3401,27.0699c-13.6199,4.76-31.52,0.91-43.4299-6.7999c-12.73-8.26-20.98-23.52-19.6699-38.8
c0.73-8.45,3.99-16.53,8.3199-23.75c2.39-3.98,7.25-8.24,8.4401-12.8301c-6.2201-0.47-12.4202,1.49-17.7001,4.7101
c0.0699-0.0499,0.13-0.09,0.1901-0.13c-0.1501,0.09-0.3401,0.21-0.5701,0.37c-0.0801,0.0399-0.16,0.09-0.24,0.15
c-0.1101,0.08-0.23,0.1499-0.3601,0.23c-0.0798,0.0601-0.1599,0.11-0.24,0.1599C362.38,583.9,352.8301,608.46,353.5801,626.89
c0.8899,21.2999,19.7,36.49,37.74,44.1901C428.1799,686.8201,479.9099,667.9299,479.02,622.79z M434.95,793.72
c8.5801,45.25,56.2001,89.15,103.99,67.63c18.3901-8.28,38.98-26.19,48-44.27c10.3301-20.69,8.3201-46.88,2.0801-68.5
c-6.38-22.07-19.0901-43.22-37.26-57.56c-16.1001-12.7-40.8201-24.38-60.91-14.21C481.4,681.3,473.0801,689.37,467.3201,698
c-6.1001,9.15-15.5601,15.1599-21.5801,24.62C432.5601,743.34,430.46,770.01,434.95,793.72z M597.02,856.98
c-2.21,2.14-4.3201,4.38-6.3101,6.72c-9.3999,9.88-20.28,13.13-32.85,17.24c-11.1901,3.65-22.12,10.49-34.0699,10.36
c-24.45-0.28-48.42-8.68-68.7-22.13c7.3499,31.89,51.5099,55.21,82.3398,46.28C569.52,906.17,592.28,891.99,597.02,856.98z
M661.95,405.3c-20.79-29.75-55.4299-42.6801-90.74-34.67c14.05-3.41-20.34,4-1.1699,0.2799
c-56.78,11.03-75.1901,64.1602-72.77,116.05c1.3201,28.1801,10.21,52.0901,25.4399,75.6101
c4.01,6.1899,15.1201,26.2799,23.49,26.75c11.22,0.6299,22.8201,0.23,34.04-0.1401c-2.8201-4.02-9.4099-6.5999-12.97-10.1599
c-3.7-3.6899-6.95-7.8201-9.96-12.0801c-5.6201-7.98-10.6101-16.5599-14.22-25.6499C533.74,520.5,529.45,496.14,531.89,473.45
c2.25-20.9299,8.12-42.33,25.23-56.02c13.4301-10.74,36.58-13.1199,52.41-7.3599c-15.8701,8.71-30.55,15.98-37.0701,34.3499
c-5.3899,15.6101-5.28,34.77,1.01,50.1401c13.3701,32.5999,63.8201,36.6699,82.51,7.52
C675.8401,471.11,684.26,437.8201,661.95,405.3z M642.4,297.1799c-25.53-21.58-55.16-31.5599-88.37-26.96
c0.3-0.05,0.53-0.09,0.6399-0.12c-0.2,0.02-0.9099,0.13-2.4299,0.38c-0.28,0.04-0.55,0.0901-0.8301,0.13
c-2.24,0.2001-4.3298,0.85-6.2899,1.9501c27.91,10.34,61.01,25.2899,80.12,48.76c10.21,12.5399,20.63,24.8499,30.16,37.9399
c4.2699,5.87,8.4,11.85,12.35,17.95c1.76,2.72,4.8401,11.14,8.1699,12.47C685.15,356.7,667.5601,318.4399,642.4,297.1799z" />
            <rect x="327.6" y="1652.11" width="516.8" height="78.92" />
            <rect x="327.6" y="1523.2" width="516.8" height="78.92" />
            <rect x="327.6" y="1394.29" width="516.8" height="78.92" />
            <path d="M646.52,1042.4c1.24-1.0701,2.73-2.35,2.21-1.84c-0.03,0.0299-0.05,0.0499-0.08,0.08c-0.17,0.15-0.34,0.29-0.5,0.42
C647.62,1041.52,647.07,1041.97,646.52,1042.4z" />
            <path d="M645.03,1043.74c0.16-0.16,0.77-0.7,1.46-1.3099c0.01-0.01,0.02-0.01,0.03-0.03c0.55-0.4301,1.1-0.88,1.63-1.34
C646.13,1042.8199,645.25,1043.5699,645.03,1043.74z" />
            <path
                d="M590.71,863.7c1.58-1.46-1.9901,2.22-2.2401,2.41C588.5,866.04,589.1,865.39,590.71,863.7z" />
            <path
                d="M570.04,370.91c-19.17,3.72,15.22-3.69,1.17-0.28C570.85,370.71,570.46,370.81,570.04,370.91z" />
            <path d="M625.24,321.32c-19.11-23.47-52.21-38.42-80.12-48.76c1.96-1.1,4.05-1.75,6.29-1.95c-1.15,0.23,1.33-0.17,2.6201-0.39
c33.21-4.6,62.84,5.38,88.37,26.96c25.16,21.26,42.75,59.52,33.52,92.5c-3.33-1.33-6.41-9.75-8.17-12.47
c-3.95-6.1-8.08-12.08-12.35-17.95C645.87,346.17,635.45,333.86,625.24,321.32z" />
            <path
                d="M554.67,270.1c-0.11,0.03-0.34,0.07-0.64,0.12c-0.59,0.08-1.19,0.17-1.79,0.26C553.76,270.23,554.47,270.12,554.67,270.1z" />
            <path d="M552.24,270.48c0.6-0.09,1.2-0.18,1.79-0.26c-1.29,0.22-3.77,0.62-2.6201,0.39C551.69,270.57,551.96,270.52,552.24,270.48z
" />
            <path d="M546.2,589.32c-8.37-0.47-19.48-20.56-23.49-26.75c-15.23-23.52-24.12-47.43-25.44-75.61
c-2.42-51.89,15.99-105.02,72.77-116.05c0.39-0.09,0.78-0.19,1.17-0.28c35.31-8.01,69.95,4.92,90.74,34.67
c22.31,32.52,13.89,65.81-5.97,96.78c-18.69,29.15-69.14,25.08-82.51-7.52c-6.29-15.37-6.4-34.53-1.0099-50.14
c6.52-18.37,21.2-25.64,37.07-34.35c-15.83-5.76-38.98-3.38-52.41,7.36c-17.11,13.69-22.98,35.09-25.23,56.02
c-2.44,22.69,1.85,47.05,11.2,67.84c3.61,9.09,8.6,17.67,14.22,25.65c3.01,4.26,6.26,8.39,9.96,12.08
c3.56,3.56,10.15,6.14,12.97,10.16C569.02,589.55,557.42,589.95,546.2,589.32z" />
            <path d="M637.5,995.5c-19.39-14.8-50.97-19.41-73.8-10.72c-9.74,3.7599-18.68,9.9-25.33,17.99c6.25,7.56,9.76,20.97,4.11,30.09
c-4.82,7.79,25.14,12.79,31.21,13.04c14.61,0.58,29.82,1.47,43.96-3.0801c9.28-2.6399,23.13-9.4099,23.27-20.2899
C641.07,1010.09,648.49,1003.89,637.5,995.5z M527.44,1063.7c-0.01,7.55,0.07,15.0901,0.07,22.64
c-0.04,29.23-0.05,58.42-0.03,87.66c0.65,29.11-3.38,59.96,0.34,88.85c31.59,0.0601,63.17,0.04,94.76,0.03c7.89,0,15.79,0,23.69,0
c11.62,0,12.04,1.0599,12.14-10.8c0.14-14.4399,1.79-30.47-0.39-44.73c2.88-13.47,0.36-29.85,0.36-43.6
c0.01-12.9301-0.03-25.87,0.03-38.75c-0.06-15.99-0.02-31.99-0.0099-47.98c0-7.99-0.01-15.99-0.04-23.98
c-0.01-1.4301-4.54-17.14-9.63-12.48c0.52-0.51-0.97,0.7699-2.21,1.84c-0.01,0.02-0.02,0.02-0.03,0.03
c-21.11,16.86-52.49,22.75-78.64,16.95c-12.56-2.78-24.04-10.2-36.37-12.74C524.49,1045.2,527.44,1059.05,527.44,1063.7z
M882.21,443.04c-10.96-23.32-24.4-46.88-40.77-67.21c-16.13-20.04-40.5-38.77-63.35-50.37c-4.54-2.31-14.44-10.83-17.19-3.84
c-2.56,6.49-3.61,13.7-4.47,20.57c-1.94,15.41-2.41,30.89,0.01,46.27c4.05,25.67,10.35,49.66,21.12,73.18
c6,13.11,12.38,26.03,19.42,38.61c5.6,10.02,15.61,21.71,18.43,32.09c-31.9-29.66-56.59-60.93-72.35-101.69
c-7.12-18.41-13.09-36.06-15.84-55.7c-3.5-24.98-2.25-47.69-1.3-72.82c0.38-10.19-14.79-12.97-23.33-16.87
c-9.3701-4.29-18.69-8.77-27.41-14.29c-15.92-10.1-32.3-23.22-45.4-36.79c-12.01-12.44-22.64-27.52-30.79-42.2
c-3.29-5.92-21.47-3.57-28.2-4.64c-12.04-1.92-22.72-6.43-33.87-11.13c-9.64-3.83-19.32-7.53-29.05-11.12
c-8.49-6.44-15.65-14.41-22.51-22.5c-15.8-17.49-36.39-4.87-55.27,2.2c-40.41,15.15-78.8,35.59-113.63,60.55
c-71.19,51.02-127.42,121.76-162.68,201.51c-72.14,163.17-41.19,351.69,73.4,487.67c28.59,33.92,62.29,63.82,99,88.71
c18.02,12.22,36.98,23.04,56.52,32.64c9.78,4.79,19.7,9.28,29.75,13.48c6.82,2.86,10.11,1.6,10.1,9.66
c-0.01,7.41-0.17,14.8199-0.09,22.23c0.52,46.26-0.9,92.64-0.01,138.9c0.4,20.67-1.95,42.1799,0.38,62.72
c11.53,0.03,23.06,0.04,34.6,0.03c5.76,0,11.53,0,17.3-0.01c7.63,0,17.38,3.73,17.59-5.47c0.96-42.55,0.48-85.4-0.04-127.9601
c-0.24-20.09,0.69-40.1699,0.04-60.26c-0.27-8.46,2.6-19.59-3.66-25.62c-7.89-7.6-9.99-18.1599-9.42-28.71
c1.11-20.38,17.63-27.46,35.72-27.57c4.55-0.03,7.92,0.8,11.59,3.4c2.09,1.48,8.12-5.37,9.56-6.4c8.03-5.7,20.89-7.06,27.87-12.98
c21.77-4.22,39.98-3.9,60.93,3c9.42,3.11,18.23,8.48,26.46,13.93c9.21,6.09,2.61-0.96,10.77-0.87c6.09,0.07,12.2-0.46,18.28,0.18
c21.45,2.29,25.91,22.05,23.19,40.41c-0.73,4.9301-2.05,8.5-4.46,12.6801c-1.1801,2.0599-5.83,4.6899-5.57,7.35
c-0.03,12.34,0,24.67-0.01,37.01c1.08,44.98,0.33,90.14-0.02,135.16c-0.08,11.15-0.09,22.2999-0.07,33.4299
c0.01,7.36-2.06,9.27,6.31,9.28c5.92,0.01,11.83,0.01,17.7401,0.02c11.8199,0,23.65,0,35.47-0.01c9-0.01,6.02-3.26,6.08-10.99
c0.05-7.33-0.02-14.65-0.15-21.97c0.37-48.53,2.15-97.7201-0.2-146.2001c2.74-9.89,0.35-23.64,0.33-33.88
c-0.01-5.4399-0.59-11.2,0.21-16.6c5.13-2.22,10.29-4.39,15.42-6.61c21.3-9.24,41.74-20.35,61.53-32.48
c36.98-22.69,71.42-50.86,100.4-83.22c58.83-65.69,98.65-147.46,114.35-234.17C1082.95,500.15,1010.36,320.34,868.21,212
c-99.15-75.56-233.85-112.83-357.06-86.8c5.93,7.28,18.53,13.11,27.16,16.94c14.54,6.47,31.45,9.2,47.17,10.87
c19.15,2.02,38.44,0.58,57.57-0.88c17.6-2.09,35.94,2.14,52.79,6.86c35.15,9.83,69.7,22.69,98.71,45.52
c24.38,19.18,44.41,48.91,55.67,77.57c-6.4-2.61-12.56-10.42-17.75-14.85c-6.6899-5.73-13.58-11.26-20.43-16.8
c-13.31-10.76-26.86-20.56-41.06-30.08c-31.59-21.17-68.58-34.47-105.68-42.55c-6.78-0.87-14.39-1.52-20.61,1.95
c-6.93,3.87,0.94,13.35,4.19,18.22c9.64,14.46,23.22,24.69,37.25,34.18c33.44,22.65,68.71,41.02,102.03,63.88
c31.28,21.46,60.3,40.94,84.1801,70.92c24.41,30.64,41.24,63.56,53.46,100.65c11.97,36.3,12.67,74.76,6.18,112.28
c-3.13,18.11-6.12,34.71-11.58,52.26c-3.52,11.34-11.16,34.54-21.27,41.68c14.37-54.78,17.75-106.78,8.44-162.18
C903.63,488.17,892.48,464.92,882.21,443.04z M1134.8,561.49c1.9299,51.08-2.91,102.82-13.63,152.77
c-3.2101,14.93-6.9601,29.73-11.26,44.37c-4.3301,14.75-9.74,28.55-15.62,42.75c-8.9701,21.67-19.41,42.72-31.14,63.03
c-21.5801,37.35-47.29,72.45-76.72,103.9901c-28.82,30.89-61.19,58.48-96.27,82.0399c-8.42,5.65-16.99,11.0701-25.71,16.25
c-6.36,3.78-17.22,6.77-18.47,14.27c0,26.2001,0.01,52.4,0.02,78.6001c0.02,50.3899,0.04,100.7699-0.04,151.1599
c-0.01,6.05-0.02,12.0901-0.03,18.14c-0.02,8.16,3.4,12.08-6.18,12.1c-12.3,0.02-24.59,0.04-36.89,0.0601
c-26.64,0.03-53.29,0.0499-79.93,0.0599c-102.48,0.05-204.96-0.0299-307.44-0.0199c-24.31,0-48.62-0.1201-72.93,0.0399
c-8.02,0.05-11.42,3.02-11.44-6.28c-0.01-6.12-0.02-12.24-0.03-18.36c-0.02-14.2799-0.04-28.5599-0.04-42.84
c-0.03-51.01,0.02-102.01,0.01-153.02c0-11.61-0.23-23.24,0-34.85c0.23-11.49-5.71-11.47-15.21-17.0699
c-20.37-12.01-40.07-25.16-58.98-39.3601c-35.66-26.7899-68.81-57.15-97.39-91.4399c-27.15-32.58-49.19-68.36-67.98-106.22
c-5.02-10.11-9.51-20.47-13.71-30.94c-3.54-8.83-10.16-20.2-10.74-29.77c-4.83-12.33-12.83-30.35-12.99-44
c-3.34-7.94-5.79-20.31-6.8-28.98c-1.48-12.74-4.88-25.23-5.33-38.14c1.11-5.27-1.01-20.48-2.75-25.31
c-3.35-8.27-1-23.63-1.17-32.54c-0.4-20.61,1.24-40.85,1.95-61.26c1.91-54.73,19.07-111.83,40.47-161.84
c33.94-79.33,85.64-150.19,150.91-206.63c33.83-29.25,71.05-54.59,110.76-75.18c18.5-7.93,35.95-18.01,54.79-25.4
c9.44-3.71,18.99-7.61,28.73-10.48c2.72-0.81,10.99-1.93,13.47-3.88c16.55-4.04,32.95-8.9,49.93-12.3
c9.45-1.29,75.31-8.86,85.35-8.72c145.95-8.52,296.22,58.43,398.82,160.26c32.17,31.93,60.17,68.01,83.45,106.87
c23.39,39.03,42.0499,80.9,55.33,124.41C1125.2,471.18,1133.08,516.19,1134.8,561.49z" />
            <path d="M597.02,856.98c-4.74,35.01-27.5,49.19-59.59,58.47c-30.83,8.93-74.99-14.39-82.34-46.28
c20.28,13.45,44.25,21.85,68.7,22.13c11.95,0.13,22.88-6.71,34.07-10.36c12.57-4.11,23.45-7.36,32.85-17.24
c-1.61,1.69-2.21,2.34-2.2401,2.41c0.25-0.19,3.82-3.87,2.2401-2.41C592.7,861.36,594.81,859.12,597.02,856.98z" />
            <path
                d="M524.49,770.34c-0.55,0.56-1.36,1.39-2.01,2.06c0.28-0.34,0.59-0.67,0.9-1C523.73,771.05,524.1,770.69,524.49,770.34z" />
            <path d="M538.94,861.35c-47.79,21.52-95.41-22.38-103.99-67.63c-4.49-23.71-2.39-50.3799,10.79-71.1
c6.02-9.46,15.48-15.47,21.58-24.62c5.76-8.63,14.08-16.7,23.53-21.19c20.09-10.17,44.81,1.51,60.91,14.21
c18.17,14.34,30.88,35.49,37.26,57.56c6.24,21.62,8.25,47.81-2.08,68.5C577.92,835.16,557.33,853.07,538.94,861.35z M550.66,761.39
c-8.54-2.37-19.7599,3.11-26.17,8.95c0.3-0.32,0.52-0.56,0.58-0.6201c-0.08,0.0601-0.56,0.54-1.69,1.6801
c-1.2,1.24-1.81,1.89-2.03,2.14c-0.03,0.02-0.06,0.05-0.0699,0.07c0.02-0.01,0.04-0.04,0.0699-0.07
c0.1801-0.18,0.59-0.59,1.08-1.08c-6.29,7.27-8.15,17.28-8.45,26.64c-19.77-3.37-37.68,4.28-35.06,27.69
c2.55,22.69,40.48,15.59,53.83,7.94c16.2-9.28,35.47-30.06,29.9-50.05C560.53,777.05,559.95,763.97,550.66,761.39z" />
            <path d="M780.78,1783.91c8.8799,0.11,6.2599,2.47,6.14,10.13c-0.08,5.13-0.01,5.47-2.67,9.1699
c-29.12,33.1001-63.82,50.86-103.29,68.5901c-7.88,2.7-16,4.2699-24.07,6.13c-2.57-0.54-8.91,1.6899-11.54,1.9299
c-5.24,0.48-13.22,0.96-18.2599,2.66c-19.15,2.39-41.11,2.71-60.27,0.35c-10.21-1.24-21.39-1.0599-31.22-4.04
c-18.75-5.6799-36.06-9.01-54.5-16.9099c-18.82-8.76-37.28-18.5801-53.86-31.15c-7.52-5.61-14.03-12.55-20.5-19.3
c-9.38-9.7899-10.28-14.26-10.64-27.47c0.14,5.0699,16.31-0.23,0.96-0.02c93.38-2.45,187.12-0.1699,280.53-0.1699
c22.2599,0,44.5099,0.0499,66.77-0.01C756.5,1783.77,768.64,1783.75,780.78,1783.91z" />
            <path
                d="M397.06,1783.98c15.35-0.21-0.82,5.09-0.96,0.02C396.43,1783.99,396.75,1783.98,397.06,1783.98z" />
            <path d="M400.25,643.06c11.91,7.71,29.81,11.56,43.43,6.8c15.94-5.06,22.88-17.72,35.34-27.07c0.89,45.14-50.84,64.03-87.7,48.29
c-18.04-7.7-36.85-22.89-37.74-44.19c-0.75-18.43,8.8-42.99,24.84-53.72c0.08-0.06,0.16-0.11,0.24-0.16
c0.13-0.08,0.25-0.15,0.36-0.23c0.08-0.05,0.16-0.1,0.24-0.15c0.13-0.09,0.26-0.17,0.38-0.24c5.28-3.22,11.48-5.18,17.7-4.71
c-1.19,4.59-6.05,8.85-8.44,12.83c-4.33,7.22-7.59,15.3-8.32,23.75C379.27,619.54,387.52,634.8,400.25,643.06z" />
            <path
                d="M380.36,571.91c-0.05,0.03-0.15,0.1-0.29,0.19C380.23,572,380.32,571.94,380.36,571.91z" />
            <path d="M379.83,572.26c-0.06,0.04-0.12,0.08-0.19,0.13c-0.12,0.07-0.25,0.15-0.38,0.24C379.49,572.47,379.68,572.35,379.83,572.26
z" />
            <path
                d="M379.02,572.78c0.08-0.0601,0.16-0.11,0.24-0.15C379.18,572.68,379.1,572.73,379.02,572.78z" />
            <path d="M377.7,573.63c0.19-0.12,0.42-0.27,0.7-0.45C378.15,573.35,377.91,573.5,377.7,573.63z" />
            <path d="M377.27,573.91C377,574.08,376.94,574.12,377.27,573.91L377.27,573.91z" />
            <path d="M288.7,298.06C288.98,298.05,288.97,298.05,288.7,298.06L288.7,298.06z" />
            <path d="M287.25,298.11c0.74-0.03,1.21-0.05,1.45-0.05c-0.56,0.03-2.16,0.1-3.77,0.17c0.33-0.03,0.66-0.04,1-0.06
c0.16-0.01,0.33-0.01,0.49-0.02c0.08,0,0.15-0.01,0.23-0.01C286.87,298.13,287.07,298.12,287.25,298.11z" />
            <path
                d="M286.65,298.14c0.2-0.01,0.4-0.02,0.6-0.03C287.07,298.12,286.87,298.13,286.65,298.14z" />
            <path d="M281.23,298.39c0.56-0.03,2.02-0.1,4.7-0.22c-0.34,0.02-0.67,0.03-1,0.06c-0.05,0.01-0.19,0.01-0.42,0.02
C283.24,298.31,281.91,298.37,281.23,298.39z" />
            <path d="M244,418.35c1.87-1.32,5.91-4.15,6.61-4.63c-0.31,0.22-1.34,0.94-3.45,2.43c-0.18,0.13-0.36,0.25-0.54,0.38
C245.41,417.37,244.56,417.96,244,418.35z" />
            <path
                d="M243.76,418.52c-0.14,0.1-0.25,0.18-0.35,0.25C243.51,418.69,243.63,418.61,243.76,418.52z" />
            <path
                d="M243.15,418.95c0.05-0.04,0.13-0.1,0.24-0.17C243.28,418.86,243.2,418.91,243.15,418.95z" />
            <path d="M209.68,544.07c-7.41-43.43-1.95-99.88,36.94-127.54c0.18-0.13,0.36-0.25,0.54-0.38c30.97-21.78,79.75-15.08,108,8.16
c35.23,28.99,32.07,67.21,14.2,104.96c-7.9,16.68-18.96,27.01-38.25,27.21c-18.66,0.19-36.16-7.92-45.73-24.42
c-9.5-15.99-9.34-38.04-4.38-55.5c2.62-9.22,7.46-17.8,15.17-23.68c4.12-3.14,16.33-4.83,18.66-8.42
c-8.12-1.14-13.35-7.77-21.96-8.2c-10.47-0.52-21.39,2.47-29.37,9.47c-16.78,14.72-23.46,36.86-24.68,58.39
c-1.29,22.95,3.87,46.69,11.59,68.21c3.62,10.1,8.13,19.9,13.68,29.09c5.8,10.09,14.02,16.18,21.17,24.79
c-10.42,0.43-20.85,0.02-31.28,0.21c-9.66-0.58-15.46-13.69-20.06-21.23C222.5,586.47,213.39,565.76,209.68,544.07z" />
            <path d="M252.24,346.19c-19.78,21.11-33.45,45.15-39.47,73.58c-6.78-4.32-3.81-30.62-3.05-37.25c1.51-13.12,5.69-25.26,11.57-37.02
c12.69-25.36,34.11-45.3,63.22-47.25c0.23-0.01,0.37-0.01,0.42-0.02c1.61-0.07,3.21-0.14,3.77-0.17c0.27-0.01,0.28-0.01,0,0
c-0.24,0-0.71,0.02-1.45,0.05c11.28-0.55,22.51-2.07,33.82-1.91c-9.99,7.75-23.28,11.44-33.64,19.11
C275.27,324.32,262.58,335.16,252.24,346.19z" />
        </g>
    </svg>